<?xml version="1.0" encoding="utf-8"?>
<!-- Generator: Adobe Illustrator 25.2.3, SVG Export Plug-In . SVG Version: 6.00 Build 0)  -->
<svg version="1.1" id="Laag_1" xmlns="http://www.w3.org/2000/svg" xmlns:xlink="http://www.w3.org/1999/xlink" x="0px" y="0px"
	 viewBox="0 0 155 47" style="enable-background:new 0 0 155 47;" xml:space="preserve">
<style type="text/css">
	.st0{fill:#009BDF;}
	.st1{clip-path:url(#SVGID_2_);}
	.st2{fill:#FEC20D;}
	.st3{clip-path:url(#SVGID_4_);}
</style>
<desc>Created with Sketch.</desc>
<g id="surface1">
	<path class="st0" d="M46.6,18.4c-0.3,0.2-0.4,0.5-0.4,0.9c0,0.4,0.2,0.7,0.5,0.9c0.3,0.2,1.1,0.5,2.3,0.8c1.2,0.3,2.1,0.7,2.8,1.3
		c0.7,0.6,1,1.4,1,2.6s-0.4,2-1.3,2.7c-0.8,0.7-2,1.1-3.3,1.1c-2,0-3.8-0.7-5.4-2.2l1.7-2.1c1.4,1.2,2.6,1.8,3.8,1.8
		c0.5,0,0.9-0.1,1.2-0.3c0.3-0.2,0.4-0.5,0.4-0.9c0-0.4-0.2-0.7-0.5-0.9c-0.3-0.2-0.9-0.4-1.9-0.7c-1.5-0.3-2.5-0.8-3.2-1.4
		c-0.7-0.6-1-1.4-1-2.6c0-1.2,0.4-2.1,1.3-2.8c0.9-0.6,1.9-1,3.2-1c0.8,0,1.7,0.1,2.5,0.4c0.8,0.3,1.6,0.7,2.2,1.2l-1.4,2.1
		C50,18.4,48.8,18,47.7,18C47.2,18,46.8,18.1,46.6,18.4"/>
	<path class="st0" d="M55.1,17.5c-0.3-0.3-0.5-0.7-0.5-1.1c0-0.4,0.2-0.8,0.5-1.1c0.3-0.3,0.7-0.5,1.1-0.5c0.4,0,0.8,0.2,1.1,0.5
		c0.3,0.3,0.5,0.7,0.5,1.1c0,0.4-0.2,0.8-0.5,1.1C57,17.8,56.6,18,56.2,18C55.7,18,55.4,17.8,55.1,17.5 M57.5,28.4h-2.7v-9.7h2.7
		V28.4"/>
	<path class="st0" d="M62.8,23v5.4h-2.7v-9.7h2.7v1.1c0.8-0.8,1.7-1.2,2.7-1.2c1,0,1.9,0.4,2.6,1.1c0.7,0.7,1,1.7,1,2.9v5.9h-2.7V23
		c0-1.5-0.5-2.2-1.6-2.2c-0.5,0-1,0.2-1.4,0.6C63,21.7,62.8,22.3,62.8,23"/>
	<path class="st0" d="M74.6,20.7V25c0,0.4,0.1,0.7,0.3,0.9c0.2,0.2,0.4,0.3,0.7,0.3c0.5,0,0.9-0.2,1.3-0.7l1,1.9
		c-0.8,0.8-1.7,1.2-2.7,1.2c-0.9,0-1.7-0.3-2.4-0.9c-0.6-0.6-1-1.4-1-2.5v-4.5h-1.1v-1.9h1.1v-2.9h2.7v2.9H77v1.9H74.6"/>
	<path class="st0" d="M79.2,21.8h6.4v2.4h-6.4V21.8"/>
	<path class="st0" d="M97.2,15.8h2.8v12.6h-2.8l-6-7.9v7.9h-2.8V15.8H91l6.2,8.1V15.8"/>
	<path class="st0" d="M103,17.5c-0.3-0.3-0.5-0.7-0.5-1.1c0-0.4,0.2-0.8,0.5-1.1c0.3-0.3,0.7-0.5,1.1-0.5c0.4,0,0.8,0.2,1.1,0.5
		c0.3,0.3,0.5,0.7,0.5,1.1c0,0.4-0.2,0.8-0.5,1.1c-0.3,0.3-0.7,0.5-1.1,0.5C103.7,18,103.3,17.8,103,17.5 M105.5,28.4h-2.7v-9.7h2.7
		V28.4"/>
	<path class="st0" d="M110.8,28.4h-2.7V15.1h2.7v6.9l3-3.2h3.4l-3.7,3.9l3.8,5.8h-3.2l-2.5-3.7l-0.9,0.9V28.4"/>
	<path class="st0" d="M121.4,28.4h-2.7V15.1h2.7V28.4"/>
	<path class="st0" d="M132.2,28.4h-2.5v-1.2c-0.7,0.9-1.6,1.3-2.6,1.3c-1,0-1.9-0.3-2.6-0.9c-0.7-0.6-1-1.4-1-2.4
		c0-1,0.4-1.7,1.1-2.2c0.7-0.5,1.7-0.7,2.9-0.7h2v-0.1c0-1-0.5-1.6-1.6-1.6c-0.5,0-1,0.1-1.5,0.3c-0.5,0.2-1,0.4-1.3,0.7l-1.2-1.7
		c1.3-0.9,2.7-1.4,4.3-1.4c1.2,0,2.1,0.3,2.9,0.9c0.7,0.6,1.1,1.5,1.1,2.8V28.4z M129.5,24.8v-0.5h-1.7c-1.1,0-1.6,0.3-1.6,1
		c0,0.3,0.1,0.6,0.4,0.8c0.3,0.2,0.6,0.3,1.1,0.3c0.5,0,0.9-0.1,1.3-0.4C129.3,25.6,129.5,25.2,129.5,24.8"/>
	<path class="st0" d="M142.9,28.4h-2.5v-1.2c-0.7,0.9-1.6,1.3-2.6,1.3c-1,0-1.9-0.3-2.6-0.9c-0.7-0.6-1-1.4-1-2.4
		c0-1,0.4-1.7,1.1-2.2c0.7-0.5,1.7-0.7,2.9-0.7h2v-0.1c0-1-0.5-1.6-1.6-1.6c-0.5,0-1,0.1-1.5,0.3c-0.5,0.2-1,0.4-1.3,0.7l-1.2-1.7
		c1.3-0.9,2.7-1.4,4.3-1.4c1.2,0,2.1,0.3,2.9,0.9c0.7,0.6,1.1,1.5,1.1,2.8V28.4z M140.2,24.8v-0.5h-1.7c-1.1,0-1.6,0.3-1.6,1
		c0,0.3,0.1,0.6,0.4,0.8c0.3,0.2,0.6,0.3,1.1,0.3s0.9-0.1,1.3-0.4C140,25.6,140.2,25.2,140.2,24.8"/>
	<g>
		<defs>
			<rect id="SVGID_1_" x="144.5" y="18.3" width="8.2" height="10.6"/>
		</defs>
		<clipPath id="SVGID_2_">
			<use xlink:href="#SVGID_1_"  style="overflow:visible;"/>
		</clipPath>
		<g class="st1">
			<path class="st0" d="M152.6,25.4c0,1-0.4,1.7-1.1,2.3c-0.7,0.6-1.6,0.9-2.7,0.9c-0.7,0-1.5-0.1-2.2-0.4c-0.8-0.3-1.5-0.6-2.1-1.1
				l1.2-1.7c1,0.8,2.1,1.2,3.2,1.2c0.3,0,0.6-0.1,0.8-0.2c0.2-0.1,0.3-0.3,0.3-0.5c0-0.2-0.1-0.4-0.4-0.6c-0.3-0.2-0.7-0.4-1.2-0.5
				c-0.5-0.2-0.9-0.3-1.2-0.4c-0.3-0.1-0.6-0.3-1-0.5c-0.7-0.5-1.1-1.1-1.1-2c0-0.9,0.4-1.6,1.1-2.2c0.7-0.6,1.6-0.8,2.8-0.8
				c1.1,0,2.3,0.4,3.4,1.2l-1,1.8c-0.8-0.6-1.7-0.9-2.5-0.9c-0.8,0-1.2,0.2-1.2,0.7c0,0.3,0.1,0.5,0.4,0.6c0.3,0.1,0.7,0.3,1.3,0.5
				c0.6,0.2,1,0.3,1.3,0.4c0.3,0.1,0.6,0.3,0.9,0.5C152.3,23.8,152.6,24.5,152.6,25.4"/>
		</g>
	</g>
	<path class="st0" d="M8.8,29L0,18.7L13.2,0l4.4,1.5L8.8,29"/>
	<path class="st0" d="M9.7,28.1l8.5-26.5c0,0,7.3,2.4,8.6,2.9c2,0.6,2.8,1.8,2.8,1.8L9.7,28.1"/>
	<path class="st2" d="M35.2,28.9c-0.2-0.8-3.3-16.1-3.9-19C30.7,7.3,30,6.8,30,6.8L9.8,28.9H35.2"/>
	<g>
		<defs>
			<rect id="SVGID_3_" x="9.3" y="29.2" width="29.5" height="17.9"/>
		</defs>
		<clipPath id="SVGID_4_">
			<use xlink:href="#SVGID_3_"  style="overflow:visible;"/>
		</clipPath>
		<g class="st3">
			<path class="st0" d="M38.3,47.1c0.2,0,0.4-0.2,0.4-0.4c0,0,0-0.1,0-0.1l-3.4-17H9.4L38.1,47C38.2,47.1,38.2,47.1,38.3,47.1"/>
		</g>
	</g>
	<path class="st2" d="M59.5,34.1c-1.6,0-2.8,1.1-2.8,2.7c0,1.5,1.2,2.7,2.8,2.7c1.6,0,2.8-1.2,2.8-2.7
		C62.3,35.2,61.1,34.1,59.5,34.1 M59.5,35c1,0,1.8,0.8,1.8,1.8c0,1-0.8,1.8-1.8,1.8c-1,0-1.8-0.8-1.8-1.8C57.7,35.7,58.6,35,59.5,35
		 M66,35.3c-0.7,0-1.2,0.3-1.5,0.8v-2.3h-1v5.6h1v-2c0-0.7,0.4-1.2,1.1-1.2c0.6,0,0.9,0.3,0.9,0.9v2.2h1v-2.5
		C67.5,35.9,66.9,35.3,66,35.3 M74.1,35.3h-3.4v0.8l2.1,0l-2.2,2.6v0.6l3.5,0v-0.8l-2.3,0l2.2-2.6V35.3z M77,35.3
		c-1.3,0-2.1,0.8-2.1,2c0,1.2,0.9,2.1,2.1,2.1c1.3,0,2.1-0.8,2.1-2.1C79.1,36.1,78.3,35.3,77,35.3 M77,36.2c0.7,0,1.1,0.5,1.1,1.2
		c0,0.7-0.5,1.2-1.1,1.2c-0.7,0-1.1-0.5-1.1-1.2C75.9,36.6,76.3,36.2,77,36.2 M85.8,35.3h-1l-1,3.1l-1.1-3.1l-1,0l1.6,4h1L85.8,35.3
		z M88.3,35.3c-1.2,0-2.1,0.8-2.1,2.1c0,1.2,0.8,2,2.1,2c0.7,0,1.3-0.3,1.7-0.7l-0.5-0.6c-0.3,0.3-0.7,0.5-1.1,0.5
		c-0.6,0-1-0.3-1.2-0.9h3C90.3,36.2,89.7,35.3,88.3,35.3 M87.2,37c0.1-0.6,0.5-1,1.1-1c0.6,0,1,0.4,1,1H87.2z M92.4,36.1v-0.8h-1v4
		h1v-2.1c0.1-0.7,0.6-1.1,1.4-1v-1C93.2,35.3,92.7,35.6,92.4,36.1 M95.7,36.1v-0.8h-1v4h1v-2.1c0.1-0.7,0.6-1.1,1.4-1v-1
		C96.5,35.3,96,35.6,95.7,36.1 M101.5,39.4l0-2.6c0-0.9-0.6-1.4-1.7-1.4c-0.7,0-1.2,0.2-1.8,0.5l0.4,0.7c0.4-0.2,0.8-0.4,1.2-0.4
		c0.6,0,0.9,0.3,0.9,0.7V37h-1.2c-1,0-1.5,0.5-1.5,1.2c0,0.7,0.5,1.3,1.4,1.3c0.6,0,1-0.2,1.3-0.5l0,0.5H101.5z M99.4,38.7
		c-0.4,0-0.7-0.2-0.7-0.6c0-0.4,0.2-0.5,0.8-0.5h1V38C100.4,38.4,100,38.7,99.4,38.7 M104.2,35.3c-0.8,0-1.5,0.4-1.5,1.2
		c0,1.4,2.1,1,2.1,1.8c0,0.3-0.3,0.4-0.6,0.4c-0.4,0-1-0.2-1.4-0.5l-0.3,0.7c0.4,0.4,1.1,0.6,1.7,0.6c0.9,0,1.6-0.4,1.6-1.2
		c0-1.5-2.1-1.1-2.1-1.8c0-0.2,0.2-0.4,0.5-0.4c0.3,0,0.8,0.1,1.2,0.4l0.4-0.7C105.3,35.5,104.7,35.3,104.2,35.3 M108.2,35.3
		c-0.8,0-1.5,0.4-1.5,1.2c0,1.4,2.1,1,2.1,1.8c0,0.3-0.3,0.4-0.6,0.4c-0.4,0-1-0.2-1.4-0.5l-0.3,0.7c0.4,0.4,1.1,0.6,1.7,0.6
		c0.9,0,1.6-0.4,1.6-1.2c0-1.5-2.1-1.1-2.1-1.8c0-0.2,0.2-0.4,0.5-0.4c0.3,0,0.8,0.1,1.2,0.4l0.4-0.7
		C109.3,35.5,108.7,35.3,108.2,35.3 M112.6,35.3c-1.2,0-2.1,0.8-2.1,2.1c0,1.2,0.8,2,2.1,2c0.7,0,1.3-0.3,1.7-0.7l-0.5-0.6
		c-0.3,0.3-0.7,0.5-1.1,0.5c-0.6,0-1-0.3-1.2-0.9h3C114.6,36.2,114,35.3,112.6,35.3 M111.5,37c0.1-0.6,0.5-1,1.1-1c0.6,0,1,0.4,1,1
		H111.5z M118.1,35.3c-0.7,0-1.2,0.2-1.4,0.8v-0.7h-1v4h1v-2.1c0.1-0.6,0.4-1,1.1-1c0.6,0,0.9,0.3,0.9,0.9v2.2h1v-2.5
		C119.6,35.9,119.1,35.3,118.1,35.3 M124,33.8V36c-0.3-0.4-0.8-0.7-1.4-0.7c-1.1,0-1.9,0.8-1.9,2c0,1.2,0.8,2.1,1.9,2.1
		c0.6,0,1.1-0.2,1.4-0.7v0.6h1v-5.6H124z M122.9,38.6c-0.7,0-1.1-0.5-1.1-1.2c0-0.7,0.5-1.2,1.1-1.2c0.7,0,1.1,0.5,1.1,1.2
		C124,38.1,123.5,38.6,122.9,38.6"/>
</g>
</svg>
